<svg width="1080" height="1080" viewBox="0 0 1080 1080" fill="none" xmlns="http://www.w3.org/2000/svg">
<path d="M284.205 376.514L338.439 284.686C338.563 284.477 338.739 284.304 338.95 284.183C339.161 284.063 339.4 284 339.643 284H794.597C794.844 283.998 795.088 284.061 795.302 284.184C795.516 284.307 795.694 284.485 795.817 284.7C795.939 284.914 796.003 285.157 796 285.405C795.997 285.652 795.929 285.894 795.801 286.105L741.567 377.924C741.444 378.134 741.267 378.307 741.056 378.427C740.845 378.548 740.606 378.611 740.363 378.611H285.409C285.163 378.612 284.921 378.548 284.708 378.426C284.495 378.303 284.318 378.126 284.196 377.913C284.073 377.7 284.01 377.458 284.011 377.212C284.013 376.966 284.08 376.725 284.205 376.514Z" fill="#7B341E"/>
<path d="M284.199 793.895L338.433 702.067C338.556 701.858 338.733 701.685 338.944 701.564C339.155 701.444 339.394 701.381 339.637 701.381H794.591C794.838 701.379 795.082 701.442 795.296 701.565C795.51 701.688 795.688 701.866 795.811 702.081C795.933 702.295 795.997 702.538 795.994 702.785C795.991 703.033 795.923 703.275 795.795 703.486L741.561 795.314C741.438 795.523 741.261 795.696 741.05 795.817C740.839 795.937 740.6 796 740.357 796H285.403C285.156 796.002 284.912 795.939 284.698 795.816C284.484 795.693 284.306 795.515 284.183 795.3C284.061 795.086 283.997 794.843 284 794.596C284.003 794.348 284.071 794.107 284.199 793.895Z" fill="#7B341E"/>
<path d="M407.13 585.208L461.364 493.381C461.487 493.172 461.664 492.999 461.875 492.878C462.086 492.758 462.325 492.695 462.568 492.695H674.456C674.703 492.692 674.946 492.756 675.161 492.879C675.375 493.002 675.553 493.18 675.675 493.394C675.798 493.609 675.861 493.852 675.859 494.099C675.856 494.346 675.787 494.588 675.66 494.8L621.426 586.619C621.302 586.828 621.126 587.002 620.915 587.122C620.704 587.242 620.465 587.305 620.222 587.305H408.334C408.088 587.307 407.846 587.243 407.633 587.12C407.42 586.998 407.243 586.821 407.121 586.608C406.998 586.395 406.934 586.153 406.936 585.907C406.938 585.661 407.004 585.42 407.13 585.208Z" fill="#7B341E"/>
<path d="M284.205 376.514L338.439 284.686C338.563 284.477 338.739 284.304 338.95 284.183C339.161 284.063 339.4 284 339.643 284H794.597C794.844 283.998 795.088 284.061 795.302 284.184C795.516 284.307 795.694 284.485 795.817 284.7C795.939 284.914 796.003 285.157 796 285.405C795.997 285.652 795.929 285.894 795.801 286.105L741.567 377.924C741.444 378.134 741.267 378.307 741.056 378.427C740.845 378.548 740.606 378.611 740.363 378.611H285.409C285.163 378.612 284.921 378.548 284.708 378.426C284.495 378.303 284.318 378.126 284.196 377.913C284.073 377.7 284.01 377.458 284.011 377.212C284.013 376.966 284.08 376.725 284.205 376.514Z" stroke="#7B341E" stroke-width="21.2352" stroke-miterlimit="10"/>
<path d="M284.199 793.895L338.433 702.067C338.556 701.858 338.733 701.685 338.944 701.564C339.155 701.444 339.394 701.381 339.637 701.381H794.591C794.838 701.379 795.082 701.442 795.296 701.565C795.51 701.688 795.688 701.866 795.811 702.081C795.933 702.295 795.997 702.538 795.994 702.785C795.991 703.033 795.923 703.275 795.795 703.486L741.561 795.314C741.438 795.523 741.261 795.696 741.05 795.817C740.839 795.937 740.6 796 740.357 796H285.403C285.156 796.002 284.912 795.939 284.698 795.816C284.484 795.693 284.306 795.515 284.183 795.3C284.061 795.086 283.997 794.843 284 794.596C284.003 794.348 284.071 794.107 284.199 793.895Z" stroke="#7B341E" stroke-width="21.2352" stroke-miterlimit="10"/>
<path d="M407.13 585.208L461.364 493.381C461.487 493.172 461.664 492.999 461.875 492.878C462.086 492.758 462.325 492.695 462.568 492.695H674.456C674.703 492.692 674.946 492.756 675.161 492.879C675.375 493.002 675.553 493.18 675.675 493.394C675.798 493.609 675.861 493.852 675.859 494.099C675.856 494.346 675.787 494.588 675.66 494.8L621.426 586.619C621.302 586.828 621.126 587.002 620.915 587.122C620.704 587.242 620.465 587.305 620.222 587.305H408.334C408.088 587.307 407.846 587.243 407.633 587.12C407.42 586.998 407.243 586.821 407.121 586.608C406.998 586.395 406.934 586.153 406.936 585.907C406.938 585.661 407.004 585.42 407.13 585.208Z" stroke="#7B341E" stroke-width="21.2352" stroke-miterlimit="10"/>
</svg>
